<svg width="82" height="82" viewBox="0 0 82 82" fill="none" xmlns="http://www.w3.org/2000/svg">
<path d="M31.5358 57.1062C31.5358 60.1471 33.6473 64.0318 39.4556 64.0318C46.2548 64.0318 50.2284 60.0821 50.2284 54.3729C50.2284 49.0839 47.4745 46.0602 40.525 43.1218C32.12 39.8452 26.9267 35.0585 26.9267 27.0806C26.9267 18.2656 33.5721 11.7158 43.5795 11.7158C48.8515 11.7158 57.1096 15.3751 57.1096 23.4282H51.0108C51.0108 21.5934 48.8856 17.7565 43.3506 17.7565C36.3225 17.7565 33.6473 22.3792 33.6473 26.2401C33.6473 31.5325 36.7838 34.136 43.8836 37.1597C52.5961 40.8532 57.0275 45.4725 57.0275 53.7852C57.0275 62.5182 51.6839 70.2912 39.5342 70.2912C34.5664 70.2912 24.8938 67.1205 24.8938 57.1062H31.5358Z" fill="white"/>
<path d="M51.4413 51.9777C52.7159 50.9421 53.8204 49.7132 54.7145 48.3356C53.4845 45.6056 52.0734 43.9076 50.9391 42.8552C50.5076 44.3799 49.7167 45.7789 48.6328 46.9347C49.3366 47.5042 49.9289 48.1727 50.4095 48.9403C50.9151 49.7603 51.2978 50.7648 51.4413 51.9777ZM48.4551 53.9013C46.138 55.0502 43.5863 55.6466 41 55.6438C32.103 55.6438 24.8938 48.7592 24.8938 40.2688C24.8938 37.7131 25.543 35.3044 26.7012 33.1826C27.6035 35.3061 28.8413 37.2707 30.3673 39.0012C30.3128 39.4204 30.2843 39.8426 30.2819 40.2654C30.2819 45.8072 34.9866 50.2933 40.7881 50.2933C42.7156 50.2994 44.6099 49.7911 46.2753 48.8207L46.3778 48.9027C46.8322 49.258 47.3789 49.6885 47.8367 50.4334C48.2809 51.1611 48.6567 52.2511 48.4551 53.9013ZM57.1061 40.2688C57.1061 41.9327 56.8294 43.5351 56.3169 45.035C54.4719 41.8234 52.4458 40.1834 51.25 39.3634C50.7716 34.2486 46.2685 30.2409 40.7881 30.2409C39.3873 30.2409 38.0548 30.5005 36.8385 30.972C35.3864 28.8742 34.908 27.1693 34.949 26.0179C36.8779 25.2717 38.9284 24.8895 40.9965 24.8904C49.897 24.8904 57.1061 31.7784 57.1061 40.2654M34.2418 32.4241C33.0665 30.6748 32.3524 28.9904 32.0996 27.4529C30.8504 28.2453 29.7167 29.2065 28.7307 30.3092C29.1749 31.6178 29.9949 33.661 31.447 35.6734C32.1371 34.4092 33.0904 33.2988 34.2418 32.4241Z" fill="white"/>
</svg>
