<svg width="71" height="71" viewBox="0 0 71 71" fill="none" xmlns="http://www.w3.org/2000/svg">
<g clip-path="url(#clip0_66_87)">
<path d="M0 35.5006C0 50.0373 8.74132 62.5255 21.2498 68.0161C21.15 65.5372 21.232 62.5613 21.8677 59.8641C22.5503 56.9822 26.4356 40.5199 26.4356 40.5199C26.4356 40.5199 25.3015 38.2532 25.3015 34.9032C25.3015 29.6422 28.3506 25.7131 32.148 25.7131C35.3771 25.7131 36.9372 28.1385 36.9372 31.0428C36.9372 34.2888 34.8668 39.1443 33.8021 43.6414C32.9127 47.4072 35.6903 50.4788 39.4053 50.4788C46.1314 50.4788 50.6616 41.8398 50.6616 31.6042C50.6616 23.8236 45.4211 17.9999 35.8897 17.9999C25.121 17.9999 18.4123 26.0307 18.4123 35.0011C18.4123 38.094 19.3242 40.275 20.7525 41.9641C21.4093 42.7398 21.5005 43.0518 21.2628 43.9426C21.0925 44.5958 20.7015 46.1683 20.5395 46.7915C20.3032 47.6906 19.5746 48.0121 18.762 47.6801C13.802 45.6552 11.492 40.2234 11.492 34.1174C11.492 24.0329 19.997 11.9408 36.864 11.9408C50.4178 11.9408 59.3385 21.7487 59.3385 32.277C59.3385 46.2033 51.5962 56.6072 40.1835 56.6072C36.3509 56.6072 32.7457 54.5355 31.5107 52.1822C31.5107 52.1822 29.4497 60.3616 29.0132 61.9411C28.2605 64.6782 26.7872 67.4139 25.4402 69.5462C28.7066 70.512 32.0952 71.0023 35.5014 71.0019C55.1052 71.0019 71.0003 55.1076 71.0003 35.5006C71.0003 15.8943 55.1052 0 35.5014 0C15.8957 0 0 15.8943 0 35.5006Z" fill="#CB1F27"/>
</g>
<defs>
<clipPath id="clip0_66_87">
<rect width="71" height="71" fill="white"/>
</clipPath>
</defs>
</svg>
