<svg width="72" height="66" viewBox="0 0 72 66" fill="none" xmlns="http://www.w3.org/2000/svg">
<path d="M54.6067 65.1562H16.8879C7.69758 65.1562 0.247314 58.3191 0.247314 49.8851V15.2706C0.247314 6.83665 7.69758 -0.000457764 16.8879 -0.000457764H54.6067C63.7971 -0.000457764 71.2473 6.83665 71.2473 15.2706V49.8851C71.2473 58.3191 63.7971 65.1562 54.6067 65.1562Z" fill="url(#paint0_radial_66_75)"/>
<path d="M54.6067 65.1562H16.8879C7.69758 65.1562 0.247314 58.3191 0.247314 49.8851V15.2706C0.247314 6.83665 7.69758 -0.000457764 16.8879 -0.000457764H54.6067C63.7971 -0.000457764 71.2473 6.83665 71.2473 15.2706V49.8851C71.2473 58.3191 63.7971 65.1562 54.6067 65.1562Z" fill="url(#paint1_radial_66_75)"/>
<path d="M35.7498 58.0293C28.2177 58.0293 27.2722 57.999 24.3141 57.8756C21.3615 57.7514 19.346 57.3225 17.5827 56.6931C15.7583 56.043 14.211 55.1733 12.6695 53.7582C11.1267 52.3434 10.179 50.9234 9.46844 49.2499C8.78063 47.6312 8.31275 45.7809 8.1799 43.0725C8.04761 40.3576 8.01294 39.4897 8.01294 32.5772C8.01294 25.6647 8.04622 24.7999 8.18046 22.0852C8.31635 19.3756 8.78368 17.526 9.46899 15.9078C10.1779 14.2336 11.1256 12.8136 12.6676 11.399C14.2088 9.98309 15.7561 9.11137 17.5791 8.46133C19.3438 7.8319 21.3596 7.40304 24.3116 7.27884C27.27 7.15539 28.2147 7.1251 35.7465 7.1251C43.2794 7.1251 44.2218 7.15539 47.18 7.27884C50.1326 7.40304 52.1503 7.8319 53.915 8.46133C55.7385 9.11137 57.2836 9.98309 58.8245 11.399C60.3674 12.8136 61.3148 14.2335 62.0256 15.907C62.7073 17.526 63.1755 19.3761 63.3142 22.0847C63.447 24.7994 63.4817 25.6647 63.4817 32.5772C63.4817 39.4897 63.447 40.3571 63.3142 43.072C63.1755 45.7816 62.7073 47.6309 62.0256 49.2492C61.3148 50.9234 60.3674 52.3434 58.8245 53.7582C57.2819 55.1739 55.7391 56.0435 53.9133 56.6928C52.1453 57.3225 50.1287 57.7516 47.1761 57.8756C44.2177 57.999 43.2758 58.0293 35.7412 58.0293H35.7498ZM33.2618 53.4426C34.0003 53.4436 34.8243 53.4426 35.7498 53.4426C43.1552 53.4426 44.0327 53.4182 46.957 53.2963C49.6611 53.1828 51.1288 52.7681 52.1064 52.4197C53.4008 51.9585 54.3235 51.407 55.2937 50.5159C56.2644 49.6251 56.8651 48.7768 57.369 47.589C57.7487 46.693 58.2011 45.3461 58.3242 42.8646C58.4571 40.1814 58.4859 39.3756 58.4859 32.5831C58.4859 25.7905 58.4571 24.9844 58.3242 22.3015C58.2005 19.82 57.7487 18.4731 57.369 17.5769C56.8665 16.3891 56.2644 15.5433 55.2937 14.653C54.323 13.7622 53.4014 13.2109 52.1064 12.7495C51.1299 12.3995 49.6611 11.9859 46.957 11.8724C44.0332 11.7505 43.1552 11.724 35.7498 11.724C28.3442 11.724 27.4664 11.7505 24.5429 11.8724C21.8388 11.9869 20.3711 12.4015 19.3926 12.75C18.0985 13.2114 17.1739 13.7627 16.2032 14.6535C15.2325 15.5443 14.6317 16.3906 14.1278 17.5789C13.7481 18.4751 13.2958 19.822 13.1726 22.3036C13.0398 24.9867 13.0132 25.7925 13.0132 32.5894C13.0132 39.3861 13.0398 40.1878 13.1726 42.8709C13.2963 45.3525 13.7481 46.6994 14.1278 47.5966C14.6306 48.7844 15.2325 49.6327 16.2035 50.5235C17.1742 51.4144 18.0985 51.9659 19.3929 52.4281C20.3705 52.7781 21.8388 53.1917 24.5429 53.3057C27.1014 53.4118 28.0929 53.4436 33.2618 53.449V53.4426ZM50.5544 49.2166C48.717 49.2166 47.2263 47.8498 47.2263 46.1634C47.2263 44.4772 48.717 43.1092 50.5544 43.1092C52.3918 43.1092 53.8825 44.4772 53.8825 46.1634C53.8825 47.8496 52.3918 49.2176 50.5544 49.2176V49.2166ZM35.7498 45.648C27.8843 45.648 21.5071 39.7956 21.5071 32.5772C21.5071 25.3588 27.8843 19.5092 35.7498 19.5092C43.6156 19.5092 49.9906 25.3588 49.9906 32.5772C49.9906 39.7953 43.615 45.648 35.7493 45.648H35.7498ZM35.7498 41.0613C40.8554 41.0613 44.9948 37.2631 44.9948 32.5772C44.9948 27.8918 40.8554 24.0931 35.7498 24.0931C30.6439 24.0931 26.5051 27.8918 26.5051 32.5772C26.5051 37.2631 30.6439 41.0613 35.7498 41.0613Z" fill="white"/>
<defs>
<radialGradient id="paint0_radial_66_75" cx="0" cy="0" r="1" gradientUnits="userSpaceOnUse" gradientTransform="translate(19.1067 -5.01879) rotate(90) scale(64.5751 65.4462)">
<stop stop-color="#FFDD55"/>
<stop offset="0.1" stop-color="#FFDD55"/>
<stop offset="0.5" stop-color="#FF543E"/>
<stop offset="1" stop-color="#C837AB"/>
</radialGradient>
<radialGradient id="paint1_radial_66_75" cx="0" cy="0" r="1" gradientUnits="userSpaceOnUse" gradientTransform="translate(-11.6455 60.4627) rotate(-77.6956) scale(28.9694 129.189)">
<stop stop-color="#3771C8"/>
<stop offset="0.128" stop-color="#3771C8"/>
<stop offset="1" stop-color="#6600FF" stop-opacity="0"/>
</radialGradient>
</defs>
</svg>
