<svg width="72" height="66" viewBox="0 0 72 66" fill="none" xmlns="http://www.w3.org/2000/svg">
<path d="M71.1455 7.7131C68.4868 9.04312 65.6668 9.91614 62.7792 10.3031C65.7869 8.26744 68.0964 5.04383 69.1839 1.20294C66.3246 3.11895 63.1963 4.46891 59.9342 5.19447C57.2769 1.9978 53.4915 0 49.3016 0C41.257 0 34.7347 7.36484 34.7347 16.4484C34.7347 17.7378 34.8637 18.9931 35.1119 20.1972C23.0058 19.5111 12.2726 12.9627 5.08805 3.01095C3.83446 5.44032 3.11614 8.26618 3.11614 11.2803C3.11614 16.9871 5.68795 22.0215 9.59627 24.9714C7.28309 24.8896 5.02079 24.1841 2.99827 22.9138C2.99743 22.9827 2.99743 23.0516 2.99743 23.1208C2.99743 31.0904 8.01846 37.7387 14.6819 39.2498C12.5369 39.9086 10.2869 40.005 8.10389 39.5317C9.95737 46.0666 15.337 50.822 21.7109 50.9551C16.7257 55.3666 10.4447 57.9964 3.62035 57.9964C2.44441 57.9964 1.28511 57.9184 0.145508 57.7665C6.59181 62.4336 14.2484 65.1567 22.4745 65.1567C49.2678 65.1567 63.919 40.0923 63.919 18.356C63.919 17.6426 63.9052 16.9332 63.8769 16.228C66.7286 13.9 69.19 11.0166 71.1455 7.7131Z" fill="#55ACEE"/>
</svg>
